<?xml version="1.0" encoding="UTF-8" standalone="no"?>
<!-- Created with Inkscape (http://www.inkscape.org/) -->

<svg
   width="38.531384mm"
   height="34.710754mm"
   viewBox="0 0 38.531384 34.710754"
   version="1.1"
   id="svg1"
   xml:space="preserve"
   xmlns:inkscape="http://www.inkscape.org/namespaces/inkscape"
   xmlns:sodipodi="http://sodipodi.sourceforge.net/DTD/sodipodi-0.dtd"
   xmlns="http://www.w3.org/2000/svg"
   xmlns:svg="http://www.w3.org/2000/svg"><sodipodi:namedview
     id="namedview1"
     pagecolor="#ffffff"
     bordercolor="#000000"
     borderopacity="0.25"
     inkscape:showpageshadow="2"
     inkscape:pageopacity="0.0"
     inkscape:pagecheckerboard="0"
     inkscape:deskcolor="#d1d1d1"
     inkscape:document-units="mm" /><defs
     id="defs1" /><g
     inkscape:label="Capa 1"
     inkscape:groupmode="layer"
     id="layer1"
     transform="translate(-141.80097,-245.38129)"><path
       d="m 151.65152,279.75051 c -1.31023,-0.47949 -2.76791,-2.18455 -3.08715,-3.61108 -1.30734,-5.84182 6.8286,-8.7396 9.4566,-3.36816 1.98364,4.05441 -2.10866,8.53849 -6.36945,6.97924 z m 3.19164,-1.58061 c 3.02982,-1.37608 2.70158,-5.70917 -0.49775,-6.57066 -3.98848,-1.07399 -6.08005,4.62798 -2.38275,6.4958 1.13843,0.57512 1.74437,0.59087 2.8805,0.0749 z m 11.57798,1.34355 c -4.08822,-2.03725 -3.50736,-8.03267 0.90245,-9.31464 3.18735,-0.92658 6.44709,1.44469 6.44709,4.68988 0,3.95996 -3.83762,6.37482 -7.34954,4.62476 z m 3.60257,-1.22813 c 1.60474,-0.6705 2.55562,-2.56703 2.08112,-4.15078 -1.12818,-3.76551 -6.47854,-3.26208 -6.76051,0.63612 -0.19518,2.69835 2.24556,4.53158 4.67939,3.51466 z m -10.85803,-3.30442 c 0,-0.85461 0,-0.85461 1.97823,-0.85461 1.97822,0 1.97822,0 1.9305,0.79375 -0.0784,1.3043 -3.90873,1.36394 -3.90873,0.0609 z m -12.12214,0.20464 c -0.69655,-0.54842 -1.12274,-1.31618 -1.32291,-2.38314 l -1.29412,-10.8849 c -0.31111,-2.56148 -0.30806,-2.55593 -1.45332,-2.64664 -2.09468,-0.16592 -1.14791,-4.5021 0.9985,-4.57312 1.84516,-0.0611 1.84516,-0.0611 1.72557,-0.659 -0.0932,-0.46615 0.0423,-0.81007 0.61504,-1.56036 0.4791,-0.62766 0.78671,-1.30973 0.88437,-1.96097 0.21691,-1.4465 0.28679,-1.55221 1.18618,-1.79439 0.55976,-0.15073 1.05849,-0.51633 1.59123,-1.16646 0.93451,-1.14045 1.41088,-1.18905 2.04591,-0.20872 0.5851,0.90325 0.51686,0.90247 1.82687,0.0209 0.59054,-0.39741 1.24305,-0.68937 1.45002,-0.6488 3.19579,0.62643 4.31122,0.57314 5.01374,-0.23955 0.69583,-0.80496 0.69583,-0.80496 1.79712,-0.55076 0.98582,0.22756 1.18803,0.20996 1.92868,-0.1679 1.15002,-0.58669 1.37993,-0.54451 2.6024,0.47748 0.59183,0.49477 1.22417,0.89958 1.40521,0.89958 0.94851,0 3.06516,1.08887 3.59157,1.84761 0.44521,0.64172 0.64683,0.76928 1.07848,0.68234 0.84816,-0.17083 2.72638,1.85852 3.29647,3.56173 0.44071,1.31666 0.44071,1.31666 2.10664,1.37925 2.1751,0.0817 2.21516,0.12432 2.21516,2.35516 0,2.09386 -0.14113,2.34475 -1.31898,2.34475 -1.01794,0 -0.88168,-0.55088 -1.64922,6.6675 -0.74287,6.98632 -0.97987,8.08317 -1.91696,8.87167 -0.86616,0.72883 -0.96311,0.69939 -1.12981,-0.3431 -0.90449,-5.65637 -8.32284,-7.04956 -10.51955,-1.9756 -0.7607,1.75707 -4.46564,1.82577 -5.27497,0.0978 -2.42388,-5.17508 -9.89589,-3.82669 -10.73542,1.9373 -0.15758,1.08195 -0.15758,1.08195 -0.7439,0.62033 z m 10.85214,-20.7687 c 0,-0.12986 -0.37047,-0.5823 -0.82326,-1.00542 -0.4528,-0.42311 -0.95036,-1.13251 -1.1057,-1.57643 -0.33115,-0.94638 -0.49913,-1.10305 -1.35602,-1.2647 -0.6023,-0.11362 -0.69086,-0.0371 -1.53601,1.32677 -0.63963,1.03223 -1.16963,1.6072 -1.84793,2.00471 -1.31534,0.77085 -1.39015,0.75119 2.85892,0.75119 2.66193,0 3.81,-0.0712 3.81,-0.23612 z m 6.94052,-0.16469 c 1.74363,-0.88991 2.16606,-2.88577 0.55547,-2.6244 -0.5929,0.0962 -0.92377,-0.0251 -1.89718,-0.6955 -1.36698,-0.94147 -1.47912,-0.91404 -2.67283,0.65384 -0.42801,0.56217 -1.01321,1.125 -1.30045,1.25075 -0.52226,0.22862 -0.52226,0.22862 -0.0125,1.02237 0.62108,0.96703 3.7504,1.19784 5.32747,0.39294 z m 9.99282,0.22685 c 0,-1.91213 -1.62473,-3.47025 -2.71675,-2.60536 -0.98528,0.78035 -1.07176,0.79021 -2.14219,0.24412 -1.1392,-0.58118 -2.12606,-0.26965 -2.12606,0.67115 0,0.34899 -0.19699,0.91118 -0.43775,1.24929 -0.43775,0.61476 -0.43775,0.61476 3.4925,0.61476 2.16164,0 3.93025,-0.0783 3.93025,-0.17396 z m -26.9761,-0.47948 c 0.0782,-0.12656 0.0322,-0.34008 -0.10216,-0.47448 -0.26548,-0.26549 -0.72141,0.20625 -0.51778,0.53573 0.14791,0.23932 0.4528,0.20919 0.61994,-0.0613 z m 2.45448,-1.45157 c 1.3976,-0.84993 2.13715,-2.53202 1.42593,-3.24324 -0.61699,-0.61699 -0.61699,-0.61699 -1.36218,0.0373 -0.40986,0.35985 -0.93056,0.65428 -1.15713,0.65428 -0.27735,0 -0.4536,0.19017 -0.53948,0.58209 -0.0701,0.32014 -0.15945,0.68871 -0.19845,0.81903 -0.2908,0.97178 0.89757,1.71839 1.83131,1.15054 z m 8.5533,-1.07475 c 0.53037,-0.20164 0.55948,-0.27752 0.42641,-1.11125 -0.24716,-1.54851 -0.53259,-1.79023 -2.31072,-1.95685 -2.25578,-0.21139 -3.54223,0.3176 -1.56779,0.64467 1.21113,0.20063 1.56739,0.41506 1.72359,1.03744 0.409,1.62956 0.62736,1.80465 1.72851,1.38599 z m 12.15832,-0.75631 c 0,-1.21079 -2.28661,-2.20541 -3.29753,-1.43435 -1.0071,0.76815 -0.57361,1.41925 0.71577,1.0751 0.62894,-0.16788 0.92624,-0.14113 1.42376,0.12809 0.64814,0.35073 1.158,0.4525 1.158,0.23116 z m -5.29486,-1.63989 c 1.24949,-1.13603 0.18628,-2.57369 -1.33093,-1.79966 -0.72594,0.37035 -1.0004,0.40364 -1.88525,0.22869 -1.02126,-0.20193 -1.04312,-0.19492 -1.57743,0.50559 -0.79003,1.03578 -0.53604,1.54047 0.46416,0.92231 0.8919,-0.55123 1.40611,-0.4644 2.42764,0.40993 0.87292,0.74713 0.7708,0.76146 1.90181,-0.26686 z"
       style="fill:#000000"
       id="path1-2"
       inkscape:export-filename="cart.svg"
       inkscape:export-xdpi="96"
       inkscape:export-ydpi="96" /></g></svg>
